<?xml version="1.0" encoding="UTF-8"?>
<svg id="Layer_2" data-name="Layer 2" xmlns="http://www.w3.org/2000/svg" viewBox="0 0 222.5 222.5">
  <defs>
    <style>
      .cls-1 {
        fill: #fff;
      }
    </style>
  </defs>
  <g id="Layer_1-2" data-name="Layer 1">
    <g>
      <path class="cls-1" d="m46.44,184.08c0-31.39,3.43-41.87,11.61-55.55l.96-1.58c8.54-14.36,24.12-25.68,40.67-37.68,16.3-11.85,33.2-24.13,38.4-36.52,2.03-4.78,2.48-9.67,2.33-14.28V6.48c0-1.57-1.08-2.92-2.6-3.29-8.51-2.08-17.41-3.19-26.56-3.19-10.25,0-20.18,1.39-29.6,3.98-1.45.4-2.44,1.74-2.44,3.25v65.6c0,1.78-.85,3.44-2.28,4.49-7.63,5.6-14.87,11.15-21.09,17.04-3.55,3.36-9.39.84-9.39-4.04V27.66c0-2.84-3.3-4.42-5.5-2.63C15.96,45.44,0,76.48,0,111.25s15.96,65.82,40.94,86.22c2.2,1.8,5.5.21,5.5-2.63v-10.76Z"/>
      <path class="cls-1" d="m178.71,22.78c-2.22-1.69-5.42-.09-5.42,2.69v12.99h-.01c.12,7.32-.71,17.02-4.92,27.02-8.78,20.84-29.41,35.84-49.39,50.35-13.11,9.52-26.64,19.35-31.74,27.92l-.99,1.64c-5.17,8.63-6.99,14.63-6.78,38.68h0v28.66c0,3.08,2.07,5.8,5.06,6.54,14.05,3.46,29.14,4.26,44.72,1.82,47.91-7.5,85.45-45.83,92.14-93.86,5.91-42.47-12.19-81.16-42.68-104.45Zm-25.94,161.21c-15.6,1.22-28.52-11.68-27.3-27.28.96-12.28,10.9-22.24,23.18-23.22,15.62-1.24,28.57,11.7,27.33,27.32-.98,12.28-10.93,22.22-23.21,23.18Z"/>
    </g>
  </g>
</svg>