<svg width="26" height="26" viewBox="0 0 26 26" fill="none" xmlns="http://www.w3.org/2000/svg">
<path id="Vector" d="M1 1.0032L25 25M9.72727 9.72941V13.0017C9.72784 13.6485 9.92009 14.2806 10.2797 14.8182C10.6394 15.3558 11.1503 15.7747 11.748 16.0222C12.3456 16.2696 13.0032 16.3344 13.6377 16.2084C14.2722 16.0824 14.855 15.7712 15.3127 15.3141M16.2727 10.1003V4.27559C16.2735 3.46409 15.9728 2.68124 15.4288 2.07901C14.8848 1.47678 14.1364 1.09813 13.3289 1.01657C12.5214 0.93502 11.7124 1.15638 11.059 1.63767C10.4055 2.11897 9.95423 2.82586 9.79273 3.62113M18.4547 18.4009C17.3898 19.4877 16.0243 20.2317 14.5336 20.5372C13.0428 20.8428 11.4948 20.6961 10.088 20.1159C8.68125 19.5357 7.47994 18.5484 6.63821 17.2808C5.79647 16.0132 5.35271 14.5231 5.36384 13.0016V10.8201M20.6366 10.8201V13.0016C20.6362 13.4515 20.596 13.9004 20.5166 14.3432M13 20.6369V25M8.63636 25H17.3636" stroke="black" stroke-width="2" stroke-linecap="round" stroke-linejoin="round"/>
</svg>
