<?xml version="1.0" encoding="UTF-8"?>
<svg id="Layer_2" data-name="Layer 2" xmlns="http://www.w3.org/2000/svg" viewBox="0 0 842.78 222.5">
  <defs>
    <style>
      .cls-1 {
        fill: #fff;
      }
    </style>
  </defs>
  <g id="Layer_1-2" data-name="Layer 1">
    <g>
      <g>
        <path class="cls-1" d="m46.44,184.08c0-31.39,3.43-41.87,11.61-55.55l.96-1.58c8.54-14.36,24.12-25.68,40.67-37.68,16.3-11.85,33.2-24.13,38.4-36.52,2.03-4.78,2.48-9.67,2.33-14.28V6.48c0-1.57-1.08-2.92-2.6-3.29-8.51-2.08-17.41-3.19-26.56-3.19-10.25,0-20.18,1.39-29.6,3.98-1.45.4-2.44,1.74-2.44,3.25v65.6c0,1.78-.85,3.44-2.28,4.49-7.63,5.6-14.87,11.15-21.09,17.04-3.55,3.36-9.39.84-9.39-4.04V27.66c0-2.84-3.3-4.42-5.5-2.63C15.96,45.44,0,76.48,0,111.25s15.96,65.82,40.94,86.22c2.2,1.8,5.5.21,5.5-2.63v-10.76Z"/>
        <path class="cls-1" d="m178.71,22.78c-2.22-1.69-5.42-.09-5.42,2.69v12.99h-.01c.12,7.32-.71,17.02-4.92,27.02-8.78,20.84-29.41,35.84-49.39,50.35-13.11,9.52-26.64,19.35-31.74,27.92l-.99,1.64c-5.17,8.63-6.99,14.63-6.78,38.68h0v28.66c0,3.08,2.07,5.8,5.06,6.54,14.05,3.46,29.14,4.26,44.72,1.82,47.91-7.5,85.45-45.83,92.14-93.86,5.91-42.47-12.19-81.16-42.68-104.45Zm-25.94,161.21c-15.6,1.22-28.52-11.68-27.3-27.28.96-12.28,10.9-22.24,23.18-23.22,15.62-1.24,28.57,11.7,27.33,27.32-.98,12.28-10.93,22.22-23.21,23.18Z"/>
      </g>
      <g>
        <path class="cls-1" d="m299.59,57.37h0c5.88,0,10.65,4.77,10.65,10.65v34.09c0,2.02,2.44,3.02,3.86,1.59l43.38-43.65c1.71-1.72,4.02-2.68,6.44-2.68h0c8.16,0,12.18,9.93,6.32,15.61l-33.19,32.14c-3.13,3.03-3.18,8.02-.13,11.12l34.62,35.11c6.33,6.42,1.78,17.28-7.23,17.28h0c-2.77,0-5.42-1.13-7.33-3.13l-42.85-44.77c-1.41-1.47-3.89-.47-3.89,1.56v35.69c0,5.88-4.77,10.65-10.65,10.65h0c-5.88,0-10.65-4.77-10.65-10.65v-89.95c0-5.88,4.77-10.65,10.65-10.65Z"/>
        <path class="cls-1" d="m394.45,62.06c.76-4.84,4.62-8.7,9.44-9.57,7.81-1.41,14.7,4.98,13.67,12.99-.64,5.02-4.59,9.09-9.59,9.87-8.01,1.25-14.75-5.51-13.53-13.29Zm11.54,24.24h0c5.57,0,10.09,4.52,10.09,10.09v62.14c0,5.57-4.52,10.09-10.09,10.09h0c-5.57,0-10.09-4.52-10.09-10.09v-62.14c0-5.57,4.52-10.09,10.09-10.09Z"/>
        <path class="cls-1" d="m440.72,86.3h5.88c3.95,0,7.15,3.2,7.15,7.15h0c6.2-5.72,14.3-8.74,23.52-8.74,19.07,0,32.42,13.51,32.42,32.74v41.16c0,5.53-4.48,10.01-10.01,10.01h0c-5.53,0-10.01-4.48-10.01-10.01v-38.14c0-11.28-7.15-18.28-18.12-18.28-7.63,0-13.83,3.18-17.8,8.9v47.44c0,5.57-4.52,10.09-10.09,10.09h0c-5.57,0-10.09-4.52-10.09-10.09v-65.08c0-3.95,3.2-7.15,7.15-7.15Z"/>
        <path class="cls-1" d="m523.04,127.46c0-23.84,18.44-42.43,41.96-42.43s40.53,18.75,40.53,43.86h0c0,2.9-2.35,5.24-5.24,5.24h-56.9c2.7,11.13,12.24,19.07,24.48,19.07,5.16,0,10.02-1.22,14-3.38,3.21-1.75,7.19-1.19,9.87,1.3h0c4.37,4.05,3.43,11.27-1.9,13.95-6.93,3.49-14.28,5.14-22.93,5.14-24.79,0-43.86-18.75-43.86-42.75Zm62.62-7.79c-2.38-10.49-10.81-17.96-21.14-17.96s-18.75,6.99-21.3,17.96h42.43Z"/>
        <path class="cls-1" d="m618.53,151.35h0c2.53-3.32,7.11-4.28,10.75-2.25,7.07,3.93,13.81,5.86,20.74,5.86,10.17,0,16.85-3.97,16.85-9.69,0-4.77-3.34-7.47-10.97-8.58l-15.58-2.23c-16.37-2.54-24.79-10.65-24.79-23.84,0-15.58,13.03-25.75,33.69-25.75,8.64,0,17.03,1.84,24.87,5.45,4.72,2.18,6.22,8.16,3.11,12.32h0c-2.37,3.17-6.66,4.18-10.2,2.42-6.67-3.32-13.03-4.94-19.68-4.94-8.26,0-13.83,3.66-13.83,8.9s3.34,7.47,11.76,8.74l15.58,2.23c16.21,2.38,25.11,10.49,25.11,23.36,0,15.42-15.26,26.86-35.6,26.86-10.86,0-20.71-2.18-28.89-6.25-4.72-2.35-6.12-8.42-2.93-12.62Z"/>
        <path class="cls-1" d="m695.62,62.06c.76-4.84,4.62-8.7,9.44-9.57,7.18-1.3,13.58,4,13.77,11.08.17,6.47-5.12,11.92-11.6,11.92-7.13,0-12.74-6.29-11.61-13.44Zm11.54,24.24h0c5.57,0,10.09,4.52,10.09,10.09v62.14c0,5.57-4.52,10.09-10.09,10.09h0c-5.57,0-10.09-4.52-10.09-10.09v-62.14c0-5.57,4.52-10.09,10.09-10.09Z"/>
        <path class="cls-1" d="m732.95,151.56l.28-.36c2.46-3.23,6.93-4.18,10.47-2.2,7.13,3.99,13.92,5.95,20.91,5.95,10.17,0,16.85-3.97,16.85-9.69,0-4.77-3.34-7.47-10.97-8.58l-15.58-2.23c-16.37-2.54-24.79-10.65-24.79-23.84,0-15.58,13.03-25.75,33.69-25.75,8.64,0,17.03,1.84,24.87,5.45,4.72,2.18,6.22,8.16,3.11,12.32h0c-2.37,3.17-6.66,4.18-10.2,2.42-6.67-3.32-13.03-4.94-19.68-4.94-8.26,0-13.83,3.66-13.83,8.9s3.34,7.47,11.76,8.74l15.58,2.23c16.21,2.38,25.11,10.49,25.11,23.36,0,15.42-15.26,26.86-35.6,26.86-10.97,0-20.91-2.23-29.13-6.37-4.58-2.31-5.96-8.2-2.85-12.28Z"/>
      </g>
      <g>
        <path class="cls-1" d="m830.91,40.77c-6.55,0-11.87-5.33-11.87-11.87s5.33-11.87,11.87-11.87,11.87,5.33,11.87,11.87-5.33,11.87-11.87,11.87Zm0-22.28c-5.74,0-10.41,4.67-10.41,10.41s4.67,10.41,10.41,10.41,10.41-4.67,10.41-10.41-4.67-10.41-10.41-10.41Z"/>
        <path class="cls-1" d="m827.22,33.52v-10.37h4.06c2.61,0,4.13,1.21,4.13,3.36,0,1.4-.87,2.51-2.34,3l2.67,4h-2.61l-2.34-3.67h-1.37v3.67h-2.19Zm2.19-5.47h1.76c1.33,0,2.04-.52,2.04-1.53s-.71-1.55-2.04-1.55h-1.76v3.08Z"/>
      </g>
    </g>
  </g>
</svg>